# xmcd
#
# Track frame offsets:
#	150
#	17452
#	34000
#	47352
#	63432
#	78185
#	95892
#	109855
#	122812
#	138587
#	151355
#	169922
#
# Disc length: 2386 seconds
#
# Revision: 3
# Processed by: cddbd v1.5.2PL0 Copyright (c) Steve Scherf et al.
# Submitted via: EZCDAudioConverter 8.0.2.1
#
DISCID=9709500c
DTITLE=DALLAS COMPANY - CLIMA DE RODEIO [CD 2-502875) COLUMBIA
DYEAR=2002
DGENRE=Country
TTITLE0=CLIMA DE RODEIO (BY GILMAR SINISTRO)
TTITLE1=DANÇA DE COWBOY (BY GILMAR SINISTRO)
TTITLE2=COMO DIRIA DYLAN (PART. ESP. ZÉ GERALDO) (BY GILMAR SINISTRO)
TTITLE3=SAUDADE (BY GILMAR SINISTRO)
TTITLE4=HERÓI DE RODEIO (BY GILMAR SINISTRO)
TTITLE5=SOLITÁRIO DO SERTÃO (BY GILMAR SINISTRO)
TTITLE6=AMEI VOCÊ (AMAZING GRACE (BY GILMAR SINISTRO)
TTITLE7=BLACK MU (INSTRUMENTAL) (BY GILMAR SINISTRO)
TTITLE8=CARA DE RESSACA (BY GILMAR SINISTRO)
TTITLE9=I'AM A GOOD COWBOY (BY GILMAR SINISTRO)
TTITLE10=CLIMA DE RODEIO (REMIX RENNAN PENEDO) (BY GILMAR SINISTRO)
TTITLE11=ORAÇÃO DO COWBOY (BY GILMAR SINISTRO)
EXTD=
EXTT0=
EXTT1=
EXTT2=
EXTT3=
EXTT4=
EXTT5=
EXTT6=
EXTT7=
EXTT8=
EXTT9=
EXTT10=
EXTT11=
PLAYORDER=
